<svg xmlns="http://www.w3.org/2000/svg" viewBox="0 0 7849.525 3107.584"><defs><style>.cls-1{fill:#592d82;}.cls-2{fill:#76777a;}.cls-3{fill:#fff;}.cls-4{fill:none;stroke:#592d82;stroke-miterlimit:10;stroke-width:60px;}</style></defs><g id="Layer_2" data-name="Layer 2"><g id="Layer_1-2" data-name="Layer 1"><g id="Top_Purple_Outline" data-name="Top Purple Outline"><polygon class="cls-1" points="1347.914 2281.495 1341.417 2274.983 1336.442 2281.495 445.368 2281.495 930.318 0 2728.92 0 2243.971 2281.495 1347.914 2281.495"/><polygon class="cls-1" points="1855.322 2281.495 2248.636 431.12 3088.311 431.12 2694.997 2281.495 1855.322 2281.495"/><polygon class="cls-1" points="2160.093 2281.495 2963.14 431.12 3805.437 431.12 3821.841 2281.495 2160.093 2281.495"/><path class="cls-1" d="M3946.935,2281.5c-185.378,0-347.136-75.781-455.487-213.376-108.055-137.228-144.592-306.61-105.652-489.826L3504.4,1020.3c34.973-164.562,121.951-305.109,258.51-417.723C3900.878,488.8,4055.9,431.12,4223.682,431.12h185.991c185.372,0,347.123,75.766,455.473,213.347,76.909,97.7,117.385,211.127,120.331,337.172l4.834,207-33.233,10.3L4852.223,1692.3c-34.994,164.576-121.965,305.116-258.5,417.723-138,113.784-293.017,171.469-460.786,171.469Z"/><polygon class="cls-1" points="4161.374 2281.495 4964.421 431.12 5806.718 431.12 5823.122 2281.495 4161.374 2281.495"/><path class="cls-1" d="M5282.243,2281.5,5675.55,431.12H6455.6c185.371,0,347.122,75.766,455.473,213.347,108.082,137.242,144.613,306.631,105.672,489.854l-19.773,93.017c-4.425,20.78-8.16,40.948-11.8,60.531-21.211,114.045-45.254,243.3-176.633,351.661-5.5,4.538-13.319,11.387-22.043,18.991-2.015,1.754-3.988,3.481-5.947,5.179l110.2,617.795Z"/><polygon class="cls-1" points="6187.777 2281.495 6990.824 431.12 7833.12 431.12 7849.525 2281.495 6187.777 2281.495"/></g><polygon id="Bottom_Purple_Outline" data-name="Bottom Purple Outline" class="cls-1" points="356.001 3107.584 753.769 2576.013 0 1899.265 7849.525 1899.265 7849.525 3107.584 356.001 3107.584"/><g id="Grey_Letters" data-name="Grey Letters"><polygon class="cls-2" points="1401.787 2151.609 1328.425 2078.112 1272.239 2151.609 605.766 2151.609 1035.497 129.886 1772.502 129.886 1824.943 492.567 1902.028 129.886 2568.522 129.886 2138.791 2151.609 1401.787 2151.609"/><polygon class="cls-2" points="2015.72 2151.609 2353.815 561.005 2927.913 561.005 2589.818 2151.609 2015.72 2151.609"/><polygon class="cls-2" points="3104.342 2151.609 3079.474 2073.301 3031.369 2078.112 2970.405 2151.609 2358.05 2151.609 3048.363 561.005 3676.7 561.005 3690.8 2151.609 3104.342 2151.609"/><path class="cls-2" d="M3946.935,2151.609c-146.826,0-269.037-56.656-353.443-163.844-83.419-105.94-111.31-238.2-80.65-382.475l118.6-557.982c28.722-135.136,100.754-251.048,214.1-344.523,114.086-94.081,241.308-141.78,378.135-141.78h185.991c146.812,0,269.031,56.649,353.437,163.823,59.122,75.1,90.24,162.519,92.509,259.841l2.551,108.936-12.3,3.812L4725.17,1665.3c-28.737,135.156-100.768,251.061-214.094,344.522-114.1,94.081-241.323,141.787-378.142,141.787Z"/><polygon class="cls-2" points="5105.623 2151.609 5090.294 2049.248 5037.378 2073.301 4971.693 2151.609 4359.331 2151.609 5049.644 561.005 5677.974 561.005 5692.081 2151.609 5105.623 2151.609"/><path class="cls-2" d="M6131.262,2151.609l-49.989-73.5-64.534,73.5h-574.1l338.088-1590.6H6455.6c146.811,0,269.03,56.649,353.436,163.823,83.433,105.954,111.324,238.215,80.657,382.49l-19.773,93.01c-28.723,135.135-30.7,245.531-144.026,339-19.717,16.264-65.972,58.636-86.591,72.159l96.348,540.123Z"/><polygon class="cls-2" points="7132.026 2151.609 7115.546 2049.248 7077.062 2058.869 6998.082 2151.609 6385.734 2151.609 7076.047 561.005 7704.376 561.005 7718.484 2151.609 7132.026 2151.609"/></g><polygon id="Bottom_Grey_Outline" data-name="Bottom Grey Outline" class="cls-2" points="614.257 2977.698 927.774 2558.72 337.933 2029.151 7718.484 2029.151 7718.484 2977.698 614.257 2977.698"/><g id="Niagara_Letters" data-name="Niagara Letters"><g id="White_Letters" data-name="White Letters"><g id="N"><path class="cls-3" d="M1376.391,967.438,1155.365,2007.281H784L1152.373,274.214H1647.54l150.341,1039.844L2018.906,274.214H2390.29L2021.915,2007.281H1526.749Z"/></g><g id="I"><path class="cls-3" d="M2749.677,705.334,2472.939,2007.281H2193.954L2470.691,705.334Z"/></g><g id="A"><path class="cls-3" d="M3246.218,1821.287H3101.141l-31.874-261.319-193.655,447.313H2578.024l565.03-1301.947h390.592l11.543,1301.947H3247.6ZM3077.683,1542.3h165.529l-3.11-374.775Z"/></g><g id="G"><path class="cls-3" d="M4409.67,705.334q154.353,0,240.055,108.8,59.305,75.337,61.609,173.913l-287.74,89.267q8.1-38.11-13.5-65.554-21.613-27.423-59.723-27.436H4164.375q-38.149,0-71.4,27.436-33.276,27.442-41.37,65.554L3933,1635.292q-8.109,38.151,13.5,65.568,21.591,27.443,59.736,27.436h185.994q38.112,0,71.386-27.436,33.253-27.424,41.373-65.568l29.65-139.492H4148.647l-33.69-278.985h557.982l-88.95,418.477q-32.817,154.392-164.748,263.181-131.937,108.809-286.309,108.808H3946.938q-154.392,0-240.053-108.808-85.68-108.809-52.867-263.181l118.6-557.983q32.808-154.353,164.749-263.18,131.931-108.789,286.305-108.8Z"/></g><g id="A-2" data-name="A"><path class="cls-3" d="M5247.5,1821.287H5102.425l-31.874-261.319L4876.9,2007.281H4579.308L5144.339,705.334h390.592l11.542,1301.947H5248.885ZM5078.967,1542.3H5244.5l-3.11-374.775Z"/></g><g id="R"><path class="cls-3" d="M6058,1263.3l-158.137,743.977H5620.874L5897.611,705.334h557.983q154.353,0,240.055,108.8,85.681,108.808,52.868,263.18l-19.769,93Q6695.936,1324.686,6564,1433.494q-65.407,53.942-136.238,80.909l123.084,492.878h-306.9Zm0,0h279q38.112,0,71.383-27.424,33.253-27.423,41.373-65.567l19.769-93q8.1-38.11-13.5-65.554-21.615-27.423-59.723-27.436h-279Z"/></g><g id="A-3" data-name="A"><path class="cls-3" d="M7273.9,1821.287H7128.822l-31.874-261.319-193.655,447.313H6605.705l565.03-1301.947h390.592l11.543,1301.947H7275.282ZM7105.364,1542.3h165.529l-3.11-374.775Z"/></g></g><g id="Purple_Letters_Backup" data-name="Purple Letters Backup"><path class="cls-4" d="M1376.391,967.438,1155.365,2007.281H784L1152.373,274.214H1647.54l150.341,1039.844L2018.906,274.214H2390.29L2021.915,2007.281H1526.749Z"/><path class="cls-4" d="M2749.677,705.334,2472.939,2007.281H2193.954L2470.691,705.334Z"/><path class="cls-4" d="M3246.218,1821.287H3101.141l-31.874-261.319-193.655,447.313H2578.024l565.03-1301.947h390.592l11.543,1301.947H3247.6ZM3077.683,1542.3h165.529l-3.11-374.775Z"/><path class="cls-4" d="M4409.67,705.334q154.353,0,240.055,108.8,59.305,75.337,61.609,173.913l-287.74,89.267q8.1-38.11-13.5-65.554-21.613-27.423-59.723-27.436H4164.375q-38.149,0-71.4,27.436-33.276,27.442-41.37,65.554L3933,1635.292q-8.109,38.151,13.5,65.568,21.591,27.443,59.736,27.436h185.994q38.112,0,71.386-27.436,33.253-27.424,41.373-65.568l29.65-139.492H4148.647l-33.69-278.985h557.982l-88.95,418.477q-32.817,154.392-164.748,263.181-131.937,108.809-286.309,108.808H3946.938q-154.392,0-240.053-108.808-85.68-108.809-52.867-263.181l118.6-557.983q32.808-154.353,164.749-263.18,131.931-108.789,286.305-108.8Z"/><path class="cls-4" d="M5247.5,1821.287H5102.425l-31.874-261.319L4876.9,2007.281H4579.308L5144.339,705.334h390.592l11.542,1301.947H5248.885ZM5078.967,1542.3H5244.5l-3.11-374.775Z"/><path class="cls-4" d="M6058,1263.3l-158.137,743.977H5620.874L5897.611,705.334h557.983q154.353,0,240.055,108.8,85.681,108.808,52.868,263.18l-19.769,93Q6695.936,1324.686,6564,1433.494q-65.407,53.942-136.238,80.909l123.084,492.878h-306.9Zm0,0h279q38.112,0,71.383-27.424,33.253-27.423,41.373-65.567l19.769-93q8.1-38.11-13.5-65.554-21.615-27.423-59.723-27.436h-279Z"/><path class="cls-4" d="M7273.9,1821.287H7128.822l-31.874-261.319-193.655,447.313H6605.705l565.03-1301.947h390.592l11.543,1301.947H7275.282ZM7105.364,1542.3h165.529l-3.11-374.775Z"/></g><g id="Purple_Letters" data-name="Purple Letters"><path class="cls-1" d="M2046.209,2037.281H1500.774l-130.006-899.1-191.109,899.1H746.952L1128.079,244.214h545.436l129.99,899.091,191.108-899.091h432.724Zm-493.486-60h444.9L2353.243,304.214H2043.2l-250.944,1180.6-170.691-1180.6h-444.9L821.045,1977.281h310.027L1382.013,796.692Z"/><path class="cls-1" d="M2497.232,2037.281H2156.907L2446.4,675.333h340.326Zm-266.231-60h217.644L2712.63,735.333H2494.985Z"/><path class="cls-1" d="M3575.456,2037.281H3217.823l-1.383-185.994H3074.578l-21.7-177.942-157.559,363.936H2532.3l591.07-1361.948h440.011Zm-298.077-60h237.543L3503.911,735.333H3162.738L2623.747,1977.281H2855.91l229.751-530.69.176,1.449,183.087-422.466,4.538,546.728H3100.994l26.71,218.985H3276Zm-154-464.979h89.582l-1.683-202.823Z"/><path class="cls-1" d="M4132.932,2037.281H3946.937c-112.095,0-200.791-40.457-263.622-120.249-62.624-79.528-82.354-176.418-58.641-287.977l118.6-557.983c23.218-109.231,82.1-203.467,175.007-280.088,93.066-76.74,195.814-115.651,305.393-115.651H4409.67c112.091,0,200.786,40.453,263.623,120.233,43.454,55.2,66.342,119.722,68.032,191.772l.532,22.645-358.245,111.141,10.638-50.052c3.532-16.615,1.074-29.57-7.736-40.768-8.708-11.049-19.861-15.985-36.145-15.985H4164.375c-18.408,0-35.519,6.732-52.311,20.58-16.949,13.978-27.127,29.891-31.115,48.649l-118.6,557.981c-3.538,16.641-1.085,29.592,7.716,40.76,8.715,11.076,19.867,16.007,36.174,16.007h185.994c18.4,0,35.506-6.733,52.3-20.581,16.95-13.979,27.129-29.895,31.116-48.659L4297.6,1525.8H4122.053l-40.937-338.985h628.87l-96.652,454.714c-23.218,109.233-82.1,203.468-175.007,280.088C4345.266,1998.366,4242.516,2037.281,4132.932,2037.281Zm90.744-1301.948c-95.282,0-185.188,34.3-267.22,101.942-82.184,67.777-134.163,150.635-154.49,246.272l-118.6,557.982c-20.113,94.624-4.708,172.6,47.093,238.384,51.592,65.519,122.4,97.368,216.482,97.368h185.995c95.285,0,185.19-34.3,267.22-101.953,82.186-67.777,134.164-150.636,154.492-246.273l81.248-382.24H4148.8l26.444,218.985h196.446l-37.352,175.729c-6.822,32.1-24.194,59.848-51.631,82.475-27.591,22.755-58.03,34.292-90.473,34.292H4006.238c-34.489,0-63.3-13.447-83.313-38.887-19.817-25.144-26.485-56.4-19.266-90.354l118.6-557.983c6.822-32.092,24.193-59.836,51.629-82.462,27.589-22.754,58.033-34.291,90.485-34.291h185.994c34.445,0,63.244,13.44,83.284,38.866a101.528,101.528,0,0,1,20.081,43.363l226.259-70.193c-4.941-50.148-22.659-94.059-53.841-133.67-51.593-65.5-122.407-97.352-216.482-97.352Z"/><path class="cls-1" d="M5576.741,2037.281H5219.106l-1.382-185.994H5075.861l-21.7-177.941L4896.6,2037.281H4533.586l18.2-41.943,572.867-1320h440.011Zm-298.078-60h237.543L5505.2,735.333H5164.022l-538.99,1241.948h232.161l229.752-530.691.177,1.449,183.087-422.465,4.537,546.728H5102.278l26.71,218.985h148.293Zm-154-464.979h89.582l-1.684-202.823Z"/><path class="cls-1" d="M6589.259,2037.281H6220.524l-160.165-640.8-136.208,640.8H5583.827l289.49-1361.948h582.277c112.09,0,200.786,40.453,263.623,120.233,62.627,79.532,82.357,176.422,58.644,287.981l-19.768,93c-23.218,109.232-82.1,203.467-175.006,280.088-38.343,31.621-78.592,56.962-119.962,75.557Zm-321.885-60h245.058L6392.2,1495.839l24.884-9.473c43.936-16.726,86.943-42.3,127.826-76.017,82.185-67.778,134.162-150.637,154.49-246.273l19.769-93c20.113-94.623,4.71-172.6-47.092-238.383-51.6-65.509-122.411-97.356-216.486-97.356H5921.9L5657.921,1977.281h217.643L6093,954.319h303.292c34.445,0,63.244,13.44,83.284,38.866,19.832,25.208,26.495,56.447,19.284,90.363l-19.767,93c-6.823,32.1-24.194,59.848-51.631,82.475-27.6,22.747-58.034,34.279-90.47,34.279H6096.417ZM6095.043,1233.3h241.951c18.4,0,35.506-6.73,52.3-20.574,16.943-13.972,27.122-29.889,31.109-48.653l19.769-93.005c3.532-16.616,1.074-29.57-7.736-40.768-8.708-11.049-19.86-15.985-36.144-15.985h-254.7Z"/><path class="cls-1" d="M7603.138,2037.281H7245.505l-1.383-185.994H7102.259l-21.7-177.942L6923,2037.281H6559.982l18.2-41.943,572.868-1320h440.01Zm-298.079-60H7542.6l-11.01-1241.948H7190.419l-538.99,1241.948H6883.59l229.752-530.69.176,1.45,183.088-422.467,4.537,546.728H7128.675l26.711,218.985h148.291Zm-154-464.979h89.582l-1.683-202.823Z"/></g></g><polygon id="Bottom_Purple_Stripe" data-name="Bottom Purple Stripe" class="cls-1" points="714.73 2173.485 7574.151 2173.485 7574.151 2539.507 7574.151 2833.37 902.518 2833.37 1122.413 2539.507 714.73 2173.485"/><g id="Esports_Text" data-name="Esports Text"><path class="cls-3" d="M2698.917,2657.505h248.607L2921.1,2772.067H2548.2l123.3-534.63H3044.4L3017.981,2352H2769.374Zm229.193-95.472H2762.373l-15.017-114.562h207.175Z"/><path class="cls-3" d="M3340.65,2390.185q3.61-15.651-6.015-26.919T3308.025,2352h-82.869q-17,0-31.811,11.267t-18.432,26.919q-3.613,15.666,6.014,26.924t25.735,15.084q141.08,45.827,180.575,84.78t24.877,102.341q-14.622,63.4-73.4,108.073t-127.564,44.68h-82.869q-68.789,0-106.954-44.68-26.434-30.929-27.451-71.411l128.2-36.662q-3.613,15.666,6.014,26.925t26.615,11.266h82.869q16.98,0,31.806-11.266t18.433-26.925q3.611-15.649-6.015-26.919t-25.728-15.089q-141.082-45.819-180.577-84.774t-24.875-102.347q14.617-63.384,73.4-108.072,58.782-44.673,127.562-44.676h82.869q68.772,0,106.956,44.676,26.422,30.936,27.45,71.415Z"/><path class="cls-3" d="M3621.775,2466.561l-70.457,305.506h-124.3l123.3-534.63h248.607q68.772,0,106.956,44.676t23.555,108.072l-8.808,38.191q-14.621,63.391-73.4,108.072t-127.564,44.681H3636.79Zm0,0h124.306q16.981,0,31.8-11.261t18.433-26.924l8.808-38.191q3.609-15.651-6.016-26.919T3772.5,2352H3648.2Z"/><path class="cls-3" d="M4254.7,2237.437q68.772,0,106.956,44.676t23.555,108.072l-52.843,229.129q-14.622,63.4-73.4,108.073t-127.564,44.68h-82.869q-68.788,0-106.954-44.68t-23.555-108.073l52.843-229.129q14.618-63.384,73.4-108.072,58.782-44.673,127.563-44.676Zm6.205,152.748q3.609-15.651-6.016-26.919T4228.279,2352H4145.41q-17,0-31.812,11.267t-18.432,26.919l-52.843,229.129q-3.613,15.666,6.014,26.925t26.615,11.266h82.869q16.981,0,31.806-11.266t18.434-26.925Z"/><path class="cls-3" d="M4551.558,2466.561,4481.1,2772.067H4356.8l123.3-534.63h248.607q68.772,0,106.956,44.676t23.555,108.072l-8.808,38.191q-14.62,63.391-73.4,108.072-29.142,22.151-60.7,33.225l54.84,202.394H4634.409Zm0,0h124.306q16.982,0,31.805-11.261t18.434-26.924l8.807-38.191q3.611-15.651-6.016-26.919T4702.285,2352H4577.979Z"/><path class="cls-3" d="M5333.231,2237.437,5306.81,2352h-124.3l-96.878,420.068H4961.325L5058.2,2352H4933.9l-15.011-114.562Z"/><path class="cls-3" d="M5612.485,2390.185q3.609-15.651-6.016-26.919T5579.86,2352h-82.869q-17,0-31.812,11.267t-18.432,26.919q-3.614,15.666,6.015,26.924t25.734,15.084q141.081,45.827,180.576,84.78t24.876,102.341q-14.621,63.4-73.4,108.073t-127.563,44.68h-82.869q-68.789,0-106.955-44.68-26.433-30.929-27.451-71.411l128.2-36.662q-3.614,15.666,6.015,26.925t26.615,11.266H5509.4q16.98,0,31.8-11.266t18.434-26.925q3.609-15.649-6.016-26.919t-25.728-15.089q-141.081-45.819-180.576-84.774t-24.876-102.347q14.619-63.384,73.4-108.072,58.78-44.673,127.562-44.676h82.869q68.77,0,106.955,44.676,26.424,30.936,27.45,71.415Z"/></g></g></g></svg>
