<?xml version="1.0" encoding="utf-8"?>
<!-- Generator: Adobe Illustrator 24.1.3, SVG Export Plug-In . SVG Version: 6.00 Build 0)  -->
<svg version="1.1" id="Layer_1" xmlns="http://www.w3.org/2000/svg" xmlns:xlink="http://www.w3.org/1999/xlink" x="0px" y="0px"
	 viewBox="0 0 8192 8192" style="enable-background:new 0 0 8192 8192;" xml:space="preserve">
<style type="text/css">
	.st0{fill:#592D82;}
	.st1{fill:#76777A;}
	.st2{fill:#FFFFFF;}
	.st3{fill:none;stroke:#592D82;stroke-width:60;stroke-miterlimit:10;}
</style>
<g id="Top_Purple_Outline">
	<polygon class="st0" points="1519.2,4823.7 1512.7,4817.2 1507.7,4823.7 616.6,4823.7 1101.6,2542.2 2900.2,2542.2 2415.2,4823.7 	
		"/>
	<polygon class="st0" points="2026.6,4823.7 2419.9,2973.3 3259.5,2973.3 2866.2,4823.7 	"/>
	<polygon class="st0" points="2331.3,4823.7 3134.4,2973.3 3976.7,2973.3 3993.1,4823.7 	"/>
	<path class="st0" d="M4118.2,4823.7c-185.4,0-347.1-75.8-455.5-213.4c-108.1-137.2-144.6-306.6-105.7-489.8l118.6-558
		c35-164.6,122-305.1,258.5-417.7c138-113.8,293-171.5,460.8-171.5h186c185.4,0,347.1,75.8,455.5,213.3
		c76.9,97.7,117.4,211.1,120.3,337.2l4.8,207l-33.2,10.3l-104.9,493.4c-35,164.6-122,305.1-258.5,417.7
		c-138,113.8-293,171.5-460.8,171.5H4118.2z"/>
	<polygon class="st0" points="4332.6,4823.7 5135.7,2973.3 5978,2973.3 5994.4,4823.7 	"/>
	<path class="st0" d="M5453.5,4823.7l393.3-1850.4h780c185.4,0,347.1,75.8,455.5,213.3c108.1,137.2,144.6,306.6,105.7,489.9
		l-19.8,93c-4.4,20.8-8.2,40.9-11.8,60.5c-21.2,114-45.3,243.3-176.6,351.7c-5.5,4.5-13.3,11.4-22,19c-2,1.8-4,3.5-5.9,5.2
		l110.2,617.8H5453.5z"/>
	<polygon class="st0" points="6359,4823.7 7162.1,2973.3 8004.4,2973.3 8020.8,4823.7 	"/>
</g>
<polygon id="Bottom_Purple_Outline" class="st0" points="527.2,5649.8 925,5118.2 171.2,4441.5 8020.8,4441.5 8020.8,5649.8 "/>
<g id="Grey_Letters">
	<polygon class="st1" points="1573,4693.8 1499.7,4620.3 1443.5,4693.8 777,4693.8 1206.7,2672.1 1943.7,2672.1 1996.2,3034.8 
		2073.3,2672.1 2739.8,2672.1 2310,4693.8 	"/>
	<polygon class="st1" points="2187,4693.8 2525.1,3103.2 3099.2,3103.2 2761.1,4693.8 	"/>
	<polygon class="st1" points="3275.6,4693.8 3250.7,4615.5 3202.6,4620.3 3141.6,4693.8 2529.3,4693.8 3219.6,3103.2 3847.9,3103.2 
		3862,4693.8 	"/>
	<path class="st1" d="M4118.2,4693.8c-146.8,0-269-56.7-353.4-163.8c-83.4-105.9-111.3-238.2-80.6-382.5l118.6-558
		c28.7-135.1,100.8-251,214.1-344.5c114.1-94.1,241.3-141.8,378.1-141.8h186c146.8,0,269,56.6,353.4,163.8
		c59.1,75.1,90.2,162.5,92.5,259.8l2.6,108.9l-12.3,3.8l-120.7,567.9c-28.7,135.2-100.8,251.1-214.1,344.5
		c-114.1,94.1-241.3,141.8-378.1,141.8H4118.2z"/>
	<polygon class="st1" points="5276.9,4693.8 5261.5,4591.5 5208.6,4615.5 5142.9,4693.8 4530.6,4693.8 5220.9,3103.2 5849.2,3103.2 
		5863.3,4693.8 	"/>
	<path class="st1" d="M6302.5,4693.8l-50-73.5l-64.5,73.5h-574.1L5952,3103.2h674.9c146.8,0,269,56.6,353.4,163.8
		c83.4,106,111.3,238.2,80.7,382.5l-19.8,93c-28.7,135.1-30.7,245.5-144,339c-19.7,16.3-66,58.6-86.6,72.2l96.3,540.1H6302.5z"/>
	<polygon class="st1" points="7303.3,4693.8 7286.8,4591.5 7248.3,4601.1 7169.3,4693.8 6557,4693.8 7247.3,3103.2 7875.6,3103.2 
		7889.7,4693.8 	"/>
</g>
<polygon id="Bottom_Grey_Outline" class="st1" points="785.5,5519.9 1099,5100.9 509.2,4571.4 7889.7,4571.4 7889.7,5519.9 "/>
<g id="Niagara_Letters">
	<g id="White_Letters">
		<g id="N">
			<path class="st2" d="M1547.6,3509.6l-221,1039.8H955.2l368.4-1733.1h495.2l150.3,1039.8l221-1039.8h371.4l-368.4,1733.1H1698
				L1547.6,3509.6z"/>
		</g>
		<g id="I">
			<path class="st2" d="M2920.9,3247.5l-276.7,1301.9h-279l276.7-1301.9H2920.9z"/>
		</g>
		<g id="A_2_">
			<path class="st2" d="M3417.5,4363.5h-145.1l-31.9-261.3l-193.7,447.3h-297.6l565-1301.9h390.6l11.5,1301.9h-297.6L3417.5,4363.5z
				 M3248.9,4084.5h165.5l-3.1-374.8L3248.9,4084.5z"/>
		</g>
		<g id="G">
			<path class="st2" d="M4580.9,3247.5c102.9,0,182.9,36.3,240.1,108.8c39.5,50.2,60.1,108.2,61.6,173.9l-287.7,89.3
				c5.4-25.4,0.9-47.3-13.5-65.6c-14.4-18.3-34.3-27.4-59.7-27.4h-186c-25.4,0-49.2,9.2-71.4,27.4c-22.2,18.3-36,40.1-41.4,65.6
				l-118.6,558c-5.4,25.4-0.9,47.3,13.5,65.6c14.4,18.3,34.3,27.4,59.7,27.4h186c25.4,0,49.2-9.1,71.4-27.4
				c22.2-18.3,36-40.1,41.4-65.6l29.6-139.5h-186l-33.7-279h558l-89,418.5c-21.9,102.9-76.8,190.6-164.7,263.2
				c-88,72.5-183.4,108.8-286.3,108.8h-186c-102.9,0-182.9-36.3-240.1-108.8c-57.1-72.5-74.7-160.3-52.9-263.2l118.6-558
				c21.9-102.9,76.8-190.6,164.7-263.2c88-72.5,183.4-108.8,286.3-108.8H4580.9z"/>
		</g>
		<g id="A_1_">
			<path class="st2" d="M5418.7,4363.5h-145.1l-31.9-261.3l-193.7,447.3h-297.6l565-1301.9h390.6l11.5,1301.9h-297.6L5418.7,4363.5z
				 M5250.2,4084.5h165.5l-3.1-374.8L5250.2,4084.5z"/>
		</g>
		<g id="R">
			<path class="st2" d="M6229.2,3805.5l-158.1,744h-279l276.7-1301.9h558c102.9,0,182.9,36.3,240.1,108.8
				c57.1,72.5,74.7,160.3,52.9,263.2l-19.8,93c-21.9,102.9-76.8,190.6-164.7,263.2c-43.6,36-89,62.9-136.2,80.9l123.1,492.9h-306.9
				L6229.2,3805.5z M6229.2,3805.5h279c25.4,0,49.2-9.1,71.4-27.4c22.2-18.3,36-40.1,41.4-65.6l19.8-93c5.4-25.4,0.9-47.3-13.5-65.6
				c-14.4-18.3-34.3-27.4-59.7-27.4h-279L6229.2,3805.5z"/>
		</g>
		<g id="A">
			<path class="st2" d="M7445.1,4363.5h-145.1l-31.9-261.3l-193.7,447.3h-297.6l565-1301.9h390.6l11.5,1301.9h-297.6L7445.1,4363.5z
				 M7276.6,4084.5h165.5l-3.1-374.8L7276.6,4084.5z"/>
		</g>
	</g>
	<g id="Purple_Letters_Backup">
		<path class="st3" d="M1547.6,3509.6l-221,1039.8H955.2l368.4-1733.1h495.2l150.3,1039.8l221-1039.8h371.4l-368.4,1733.1H1698
			L1547.6,3509.6z"/>
		<path class="st3" d="M2920.9,3247.5l-276.7,1301.9h-279l276.7-1301.9H2920.9z"/>
		<path class="st3" d="M3417.5,4363.5h-145.1l-31.9-261.3l-193.7,447.3h-297.6l565-1301.9h390.6l11.5,1301.9h-297.6L3417.5,4363.5z
			 M3248.9,4084.5h165.5l-3.1-374.8L3248.9,4084.5z"/>
		<path class="st3" d="M4580.9,3247.5c102.9,0,182.9,36.3,240.1,108.8c39.5,50.2,60.1,108.2,61.6,173.9l-287.7,89.3
			c5.4-25.4,0.9-47.3-13.5-65.6c-14.4-18.3-34.3-27.4-59.7-27.4h-186c-25.4,0-49.2,9.2-71.4,27.4c-22.2,18.3-36,40.1-41.4,65.6
			l-118.6,558c-5.4,25.4-0.9,47.3,13.5,65.6c14.4,18.3,34.3,27.4,59.7,27.4h186c25.4,0,49.2-9.1,71.4-27.4
			c22.2-18.3,36-40.1,41.4-65.6l29.6-139.5h-186l-33.7-279h558l-89,418.5c-21.9,102.9-76.8,190.6-164.7,263.2
			c-88,72.5-183.4,108.8-286.3,108.8h-186c-102.9,0-182.9-36.3-240.1-108.8c-57.1-72.5-74.7-160.3-52.9-263.2l118.6-558
			c21.9-102.9,76.8-190.6,164.7-263.2c88-72.5,183.4-108.8,286.3-108.8H4580.9z"/>
		<path class="st3" d="M5418.7,4363.5h-145.1l-31.9-261.3l-193.7,447.3h-297.6l565-1301.9h390.6l11.5,1301.9h-297.6L5418.7,4363.5z
			 M5250.2,4084.5h165.5l-3.1-374.8L5250.2,4084.5z"/>
		<path class="st3" d="M6229.2,3805.5l-158.1,744h-279l276.7-1301.9h558c102.9,0,182.9,36.3,240.1,108.8
			c57.1,72.5,74.7,160.3,52.9,263.2l-19.8,93c-21.9,102.9-76.8,190.6-164.7,263.2c-43.6,36-89,62.9-136.2,80.9l123.1,492.9h-306.9
			L6229.2,3805.5z M6229.2,3805.5h279c25.4,0,49.2-9.1,71.4-27.4c22.2-18.3,36-40.1,41.4-65.6l19.8-93c5.4-25.4,0.9-47.3-13.5-65.6
			c-14.4-18.3-34.3-27.4-59.7-27.4h-279L6229.2,3805.5z"/>
		<path class="st3" d="M7445.1,4363.5h-145.1l-31.9-261.3l-193.7,447.3h-297.6l565-1301.9h390.6l11.5,1301.9h-297.6L7445.1,4363.5z
			 M7276.6,4084.5h165.5l-3.1-374.8L7276.6,4084.5z"/>
	</g>
	<g id="Purple_Letters_1_">
		<path class="st0" d="M2217.4,4579.5H1672l-130-899.1l-191.1,899.1H918.2l381.1-1793.1h545.4l130,899.1l191.1-899.1h432.7
			L2217.4,4579.5z M1724,4519.5h444.9l355.6-1673.1h-310L1963.5,4027l-170.7-1180.6h-444.9L992.3,4519.5h310l250.9-1180.6
			L1724,4519.5z"/>
		<path class="st0" d="M2668.5,4579.5h-340.3l289.5-1361.9H2958L2668.5,4579.5z M2402.2,4519.5h217.6l264-1241.9h-217.6
			L2402.2,4519.5z"/>
		<path class="st0" d="M3746.7,4579.5h-357.6l-1.4-186h-141.9l-21.7-177.9l-157.6,363.9h-363l591.1-1361.9h440L3746.7,4579.5z
			 M3448.6,4519.5h237.5l-11-1241.9H3334l-539,1241.9h232.2l229.8-530.7l0.2,1.4l183.1-422.5l4.5,546.7h-172.5l26.7,219h148.3
			L3448.6,4519.5z M3294.6,4054.5h89.6l-1.7-202.8L3294.6,4054.5z"/>
		<path class="st0" d="M4304.2,4579.5h-186c-112.1,0-200.8-40.5-263.6-120.2c-62.6-79.5-82.4-176.4-58.6-288l118.6-558
			c23.2-109.2,82.1-203.5,175-280.1c93.1-76.7,195.8-115.7,305.4-115.7h186c112.1,0,200.8,40.5,263.6,120.2
			c43.5,55.2,66.3,119.7,68,191.8l0.5,22.6l-358.2,111.1l10.6-50.1c3.5-16.6,1.1-29.6-7.7-40.8c-8.7-11-19.9-16-36.1-16h-186
			c-18.4,0-35.5,6.7-52.3,20.6c-16.9,14-27.1,29.9-31.1,48.6l-118.6,558c-3.5,16.6-1.1,29.6,7.7,40.8c8.7,11.1,19.9,16,36.2,16h186
			c18.4,0,35.5-6.7,52.3-20.6c17-14,27.1-29.9,31.1-48.7l21.9-103.3h-175.5l-40.9-339h628.9l-96.7,454.7
			c-23.2,109.2-82.1,203.5-175,280.1C4516.5,4540.6,4413.8,4579.5,4304.2,4579.5z M4394.9,3277.5c-95.3,0-185.2,34.3-267.2,101.9
			c-82.2,67.8-134.2,150.6-154.5,246.3l-118.6,558c-20.1,94.6-4.7,172.6,47.1,238.4c51.6,65.5,122.4,97.4,216.5,97.4h186
			c95.3,0,185.2-34.3,267.2-102c82.2-67.8,134.2-150.6,154.5-246.3l81.2-382.2H4320l26.4,219h196.4l-37.4,175.7
			c-6.8,32.1-24.2,59.8-51.6,82.5c-27.6,22.8-58,34.3-90.5,34.3h-186c-34.5,0-63.3-13.4-83.3-38.9c-19.8-25.1-26.5-56.4-19.3-90.4
			l118.6-558c6.8-32.1,24.2-59.8,51.6-82.5c27.6-22.8,58-34.3,90.5-34.3h186c34.4,0,63.2,13.4,83.3,38.9c10.2,13,17,27.6,20.1,43.4
			l226.3-70.2c-4.9-50.1-22.7-94.1-53.8-133.7c-51.6-65.5-122.4-97.4-216.5-97.4H4394.9z"/>
		<path class="st0" d="M5748,4579.5h-357.6l-1.4-186h-141.9l-21.7-177.9l-157.6,363.9h-363l18.2-41.9l572.9-1320h440L5748,4579.5z
			 M5449.9,4519.5h237.5l-11-1241.9h-341.2l-539,1241.9h232.2l229.8-530.7l0.2,1.4l183.1-422.5l4.5,546.7h-172.5l26.7,219h148.3
			L5449.9,4519.5z M5295.9,4054.5h89.6l-1.7-202.8L5295.9,4054.5z"/>
		<path class="st0" d="M6760.5,4579.5h-368.7l-160.2-640.8l-136.2,640.8h-340.3l289.5-1361.9h582.3c112.1,0,200.8,40.5,263.6,120.2
			c62.6,79.5,82.4,176.4,58.6,288l-19.8,93c-23.2,109.2-82.1,203.5-175,280.1c-38.3,31.6-78.6,57-120,75.6L6760.5,4579.5z
			 M6438.6,4519.5h245.1L6563.4,4038l24.9-9.5c43.9-16.7,86.9-42.3,127.8-76c82.2-67.8,134.2-150.6,154.5-246.3l19.8-93
			c20.1-94.6,4.7-172.6-47.1-238.4c-51.6-65.5-122.4-97.4-216.5-97.4h-533.7l-264,1241.9h217.6l217.4-1023h303.3
			c34.4,0,63.2,13.4,83.3,38.9c19.8,25.2,26.5,56.4,19.3,90.4l-19.8,93c-6.8,32.1-24.2,59.8-51.6,82.5c-27.6,22.7-58,34.3-90.5,34.3
			h-240.6L6438.6,4519.5z M6266.3,3775.5h242c18.4,0,35.5-6.7,52.3-20.6c16.9-14,27.1-29.9,31.1-48.7l19.8-93
			c3.5-16.6,1.1-29.6-7.7-40.8c-8.7-11-19.9-16-36.1-16h-254.7L6266.3,3775.5z"/>
		<path class="st0" d="M7774.4,4579.5h-357.6l-1.4-186h-141.9l-21.7-177.9l-157.6,363.9h-363l18.2-41.9l572.9-1320h440
			L7774.4,4579.5z M7476.3,4519.5h237.5l-11-1241.9h-341.2l-539,1241.9h232.2l229.8-530.7l0.2,1.5l183.1-422.5l4.5,546.7h-172.5
			l26.7,219h148.3L7476.3,4519.5z M7322.3,4054.5h89.6l-1.7-202.8L7322.3,4054.5z"/>
	</g>
</g>
<polygon id="Bottom_Purple_Stripe" class="st0" points="886,4715.7 7745.4,4715.7 7745.4,5081.7 7745.4,5375.6 1073.8,5375.6 
	1293.7,5081.7 "/>
<g id="Esports_Text">
	<path class="st2" d="M2870.2,5199.7h248.6l-26.4,114.6h-372.9l123.3-534.6h372.9l-26.4,114.6h-248.6L2870.2,5199.7z M3099.3,5104.2
		h-165.7l-15-114.6h207.2L3099.3,5104.2z"/>
	<path class="st2" d="M3511.9,4932.4c2.4-10.4,0.4-19.4-6-26.9c-6.4-7.5-15.3-11.3-26.6-11.3h-82.9c-11.3,0-21.9,3.8-31.8,11.3
		c-9.9,7.5-16,16.5-18.4,26.9c-2.4,10.4-0.4,19.4,6,26.9c6.4,7.5,15,12.5,25.7,15.1c94.1,30.6,154.2,58.8,180.6,84.8
		c26.3,26,34.6,60.1,24.9,102.3c-9.7,42.3-34.2,78.3-73.4,108.1s-81.7,44.7-127.6,44.7h-82.9c-45.9,0-81.5-14.9-107-44.7
		c-17.6-20.6-26.8-44.4-27.5-71.4l128.2-36.7c-2.4,10.4-0.4,19.4,6,26.9c6.4,7.5,15.3,11.3,26.6,11.3h82.9
		c11.3,0,21.9-3.8,31.8-11.3c9.9-7.5,16-16.5,18.4-26.9c2.4-10.4,0.4-19.4-6-26.9c-6.4-7.5-15-12.5-25.7-15.1
		c-94.1-30.5-154.2-58.8-180.6-84.8c-26.3-26-34.6-60.1-24.9-102.3c9.7-42.3,34.2-78.3,73.4-108.1c39.2-29.8,81.7-44.7,127.6-44.7
		h82.9c45.8,0,81.5,14.9,107,44.7c17.6,20.6,26.8,44.4,27.4,71.4L3511.9,4932.4z"/>
	<path class="st2" d="M3793,5008.8l-70.5,305.5h-124.3l123.3-534.6h248.6c45.8,0,81.5,14.9,107,44.7c25.4,29.8,33.3,65.8,23.6,108.1
		l-8.8,38.2c-9.7,42.3-34.2,78.3-73.4,108.1c-39.2,29.8-81.7,44.7-127.6,44.7H3808L3793,5008.8z M3793,5008.8h124.3
		c11.3,0,21.9-3.8,31.8-11.3c9.9-7.5,16-16.5,18.4-26.9l8.8-38.2c2.4-10.4,0.4-19.4-6-26.9c-6.4-7.5-15.3-11.3-26.6-11.3h-124.3
		L3793,5008.8z"/>
	<path class="st2" d="M4425.9,4779.6c45.8,0,81.5,14.9,107,44.7c25.4,29.8,33.3,65.8,23.6,108.1l-52.8,229.1
		c-9.7,42.3-34.2,78.3-73.4,108.1s-81.7,44.7-127.6,44.7h-82.9c-45.9,0-81.5-14.9-107-44.7s-33.3-65.8-23.6-108.1l52.8-229.1
		c9.7-42.3,34.2-78.3,73.4-108.1c39.2-29.8,81.7-44.7,127.6-44.7H4425.9z M4432.1,4932.4c2.4-10.4,0.4-19.4-6-26.9
		c-6.4-7.5-15.3-11.3-26.6-11.3h-82.9c-11.3,0-21.9,3.8-31.8,11.3c-9.9,7.5-16,16.5-18.4,26.9l-52.8,229.1
		c-2.4,10.4-0.4,19.4,6,26.9c6.4,7.5,15.3,11.3,26.6,11.3h82.9c11.3,0,21.9-3.8,31.8-11.3c9.9-7.5,16-16.5,18.4-26.9L4432.1,4932.4z
		"/>
	<path class="st2" d="M4722.8,5008.8l-70.5,305.5H4528l123.3-534.6h248.6c45.8,0,81.5,14.9,107,44.7c25.4,29.8,33.3,65.8,23.6,108.1
		l-8.8,38.2c-9.7,42.3-34.2,78.3-73.4,108.1c-19.4,14.8-39.7,25.8-60.7,33.2l54.8,202.4h-136.7L4722.8,5008.8z M4722.8,5008.8h124.3
		c11.3,0,21.9-3.8,31.8-11.3c9.9-7.5,16-16.5,18.4-26.9l8.8-38.2c2.4-10.4,0.4-19.4-6-26.9c-6.4-7.5-15.3-11.3-26.6-11.3h-124.3
		L4722.8,5008.8z"/>
	<path class="st2" d="M5504.5,4779.6l-26.4,114.6h-124.3l-96.9,420.1h-124.3l96.9-420.1h-124.3l-15-114.6H5504.5z"/>
	<path class="st2" d="M5783.7,4932.4c2.4-10.4,0.4-19.4-6-26.9c-6.4-7.5-15.3-11.3-26.6-11.3h-82.9c-11.3,0-21.9,3.8-31.8,11.3
		c-9.9,7.5-16,16.5-18.4,26.9c-2.4,10.4-0.4,19.4,6,26.9c6.4,7.5,15,12.5,25.7,15.1c94.1,30.6,154.2,58.8,180.6,84.8
		c26.3,26,34.6,60.1,24.9,102.3c-9.7,42.3-34.2,78.3-73.4,108.1s-81.7,44.7-127.6,44.7h-82.9c-45.9,0-81.5-14.9-107-44.7
		c-17.6-20.6-26.8-44.4-27.5-71.4l128.2-36.7c-2.4,10.4-0.4,19.4,6,26.9c6.4,7.5,15.3,11.3,26.6,11.3h82.9
		c11.3,0,21.9-3.8,31.8-11.3c9.9-7.5,16-16.5,18.4-26.9c2.4-10.4,0.4-19.4-6-26.9c-6.4-7.5-15-12.5-25.7-15.1
		c-94.1-30.5-154.2-58.8-180.6-84.8c-26.3-26-34.6-60.1-24.9-102.3c9.7-42.3,34.2-78.3,73.4-108.1c39.2-29.8,81.7-44.7,127.6-44.7
		h82.9c45.8,0,81.5,14.9,107,44.7c17.6,20.6,26.8,44.4,27.4,71.4L5783.7,4932.4z"/>
</g>
</svg>
